<svg width="510" height="111" viewBox="0 0 510 111" xmlns="http://www.w3.org/2000/svg" xmlns:xlink="http://www.w3.org/1999/xlink" fill="none" overflow="hidden"><defs><clipPath id="clip0_33_509"><rect x="0" y="0" width="509.06" height="110.09" fill="#FFFFFF"/></clipPath></defs><g clip-path="url(#clip0_33_509)"><path d="M238.17 22.3901 189.27 22.3901 189.27 28.5901 210.07 28.5901 210.07 86.7901 217.47 86.7901 217.47 28.5901 238.17 28.5901 238.17 22.3901Z" fill="#1CB06A"/><path d="M254.17 42.8902 253.67 36.1902 253.17 36.0902C251.67 35.6902 250.27 35.4902 248.87 35.4902 244.97 35.4902 241.77 36.2902 239.27 37.8902 237.47 39.0902 235.87 40.6902 234.57 42.7902L234.57 36.5902 227.97 36.5902 227.97 86.7902 234.87 86.7902 234.87 86.0902C234.87 75.9902 235.07 56.4902 235.27 54.6902 235.57 52.4902 236.17 50.4902 236.97 48.8902 237.77 47.2902 238.77 45.8902 239.77 44.8902 242.07 42.7902 244.67 41.6902 247.57 41.6902 248.47 41.6902 249.47 41.7902 250.37 41.9902 251.27 42.1902 252.27 42.3902 253.17 42.6902L254.17 42.8902ZM290.37 38.4902C287.17 36.4902 282.07 35.4902 275.17 35.4902 272.67 35.4902 270.07 35.6902 267.17 36.1902 264.37 36.6902 261.67 37.2902 259.07 37.9902L258.57 38.0902 257.87 44.8902 259.07 44.2902C261.77 42.9902 264.57 42.0902 267.37 41.4902 270.17 40.9902 273.07 40.6902 275.97 40.6902 279.67 40.6902 282.67 41.2902 284.87 42.4902 286.97 43.6902 288.07 45.3902 288.17 47.6902 288.27 48.9902 287.97 50.0902 287.37 50.9902 286.77 51.8902 285.87 52.7902 284.67 53.4902 283.47 54.2902 281.87 54.8902 280.17 55.3902 278.37 55.9902 276.27 56.4902 273.97 57.0902 271.37 57.7902 268.77 58.4902 266.27 59.1902 263.67 59.9902 261.37 60.9902 259.37 62.1902 257.37 63.4902 255.67 65.0902 254.47 67.0902 253.27 69.0902 252.67 71.5902 252.77 74.5902 252.87 77.5902 253.67 80.0902 255.17 81.7902 256.57 83.4902 258.27 84.7902 260.27 85.6902 262.17 86.5902 264.17 87.0902 266.37 87.2902 268.47 87.4902 270.27 87.5902 271.77 87.5902 277.87 87.5902 283.57 85.2902 288.47 80.6902L288.47 86.4902 295.57 86.4902 295.57 85.7902C295.57 85.4902 295.77 57.1902 295.87 54.8902 295.87 52.5902 295.87 50.3902 295.77 48.2902 295.37 43.8902 293.67 40.5902 290.37 38.4902ZM288.47 57.4902C288.47 60.6902 288.37 67.7902 288.37 73.8902 283.67 79.6902 278.27 82.5902 271.87 82.5902 270.27 82.5902 268.77 82.3902 267.37 82.0902 265.97 81.7902 264.77 81.2902 263.67 80.5902 262.67 79.8902 261.77 79.0902 261.17 78.0902 260.57 77.0902 260.17 75.8902 260.17 74.4902 260.07 71.7902 260.97 69.5902 263.07 67.9902 265.17 66.2902 268.67 64.6902 273.37 63.3902 277.47 62.2902 280.87 61.1902 283.47 60.2902 285.47 59.4902 287.17 58.4902 288.47 57.4902ZM312.07 47.2902C313.57 45.3902 315.37 43.8902 317.57 42.8902 319.77 41.8902 322.37 41.2902 325.37 41.2902 327.37 41.2902 329.47 41.4902 331.47 41.9902 333.57 42.4902 335.77 43.0902 338.07 43.7902L339.17 44.0902 338.37 37.4902 337.87 37.3902C335.87 36.7902 333.77 36.2902 331.47 35.9902 329.17 35.6902 326.87 35.4902 324.57 35.4902 320.27 35.4902 316.57 36.1902 313.37 37.5902 310.27 38.9902 307.67 40.9902 305.67 43.3902 303.67 45.8902 302.27 48.8902 301.47 52.2902 300.67 55.6902 300.27 59.3902 300.47 63.3902 300.77 71.2902 303.17 77.3902 307.47 81.5902 311.77 85.7902 317.87 87.8902 325.57 87.8902 329.47 87.8902 333.57 87.3902 337.57 86.4902L338.07 86.3902 338.97 79.4902 337.87 79.7902C335.87 80.3902 333.87 80.8902 332.07 81.3902 330.27 81.7902 328.47 82.0902 326.57 82.0902 320.57 82.0902 315.97 80.4902 312.87 77.1902 309.77 73.9902 308.07 69.2902 307.87 63.2902 307.77 59.9902 308.07 56.8902 308.77 54.1902 309.47 51.4902 310.67 49.1902 312.07 47.2902ZM344.17 22.4902 350.97 22.4902 350.97 86.6902 344.17 86.6902 344.17 22.4902ZM371.57 71.2902C367.67 67.0902 363.87 62.8902 360.37 58.8902 361.77 57.3902 363.17 55.9902 364.47 54.5902 366.07 52.9902 367.67 51.2902 369.27 49.5902 370.87 47.8902 372.67 46.0902 374.57 44.0902 376.47 42.1902 378.57 40.0902 380.77 37.7902L381.97 36.4902 372.47 36.4902 372.27 36.7902C369.07 40.6902 365.67 44.4902 362.37 47.8902 358.97 51.3902 355.67 54.8902 352.47 58.3902L351.97 58.8902 352.37 59.3902C354.47 61.7902 356.47 64.0902 358.57 66.2902 360.57 68.4902 362.57 70.6902 364.57 72.9902 366.57 75.0902 368.57 77.3902 370.57 79.6902 372.57 81.9902 374.57 84.2902 376.47 86.5902L376.67 86.8902 386.07 86.8902 384.87 85.6902C380.07 80.3902 375.57 75.6902 371.57 71.2902ZM386.97 22.4902 394.07 22.4902 394.07 28.5902 386.97 28.5902 386.97 22.4902ZM386.97 36.5902 394.07 36.5902 394.07 86.7902 386.97 86.7902 386.97 36.5902ZM441.27 39.2902C437.77 36.7902 433.07 35.4902 427.17 35.4902 422.77 35.4902 418.67 36.3902 415.07 37.9902 412.27 39.2902 410.07 41.3902 408.37 44.1902L408.57 36.4902 401.27 36.4902 401.27 86.6902 408.17 86.6902 408.17 85.9902C408.17 85.7902 408.27 64.1902 408.27 62.1902 408.27 60.1902 408.47 58.2902 408.77 56.5902 409.07 54.8902 409.47 53.2902 409.97 51.7902 410.47 50.3902 411.17 48.9902 412.17 47.6902 415.17 43.5902 419.27 41.5902 424.87 41.5902 429.47 41.5902 433.07 42.4902 435.67 44.2902 438.17 46.0902 439.47 48.1902 439.57 50.9902 439.57 52.1902 439.67 54.0902 439.67 56.6902L439.67 86.6902 446.77 86.6902 446.77 85.9902C446.77 84.5902 446.97 52.5902 446.87 51.4902 446.67 45.9902 444.77 41.7902 441.27 39.2902ZM499.77 77.6902C499.67 73.7902 499.67 38.4902 499.67 38.0902L499.67 37.4902 499.07 37.3902C498.97 37.3902 493.67 36.3902 490.87 36.0902 487.97 35.6902 485.17 35.5902 482.37 35.5902 476.67 35.5902 471.77 36.4902 467.77 38.0902 463.77 39.7902 460.57 42.0902 458.07 44.8902 455.67 47.6902 453.87 50.9902 452.77 54.5902 451.77 58.1902 451.27 61.9902 451.47 65.8902 451.77 72.7902 453.97 78.2902 457.97 82.0902 461.97 85.8902 467.47 87.8902 474.27 87.8902 476.47 87.8902 478.67 87.5902 480.77 86.9902 482.87 86.3902 484.77 85.5902 486.57 84.5902 488.37 83.4902 489.87 82.1902 491.17 80.6902 491.77 79.8902 492.37 79.0902 492.87 78.2902L492.87 86.0902C492.87 87.4902 492.77 88.7902 492.77 89.9902 492.67 91.1902 492.47 92.4902 492.27 93.8902 491.67 96.9902 490.27 99.5902 487.87 101.49 485.47 103.39 481.67 104.39 476.57 104.39 473.27 104.39 470.07 104.09 466.97 103.49 463.87 102.89 460.97 102.09 458.17 101.19L457.07 100.79 457.87 107.89 458.37 107.99C461.27 108.69 464.27 109.29 467.27 109.59 470.27 109.99 473.27 110.09 476.27 110.09 480.57 110.09 484.17 109.59 487.17 108.69 490.17 107.79 492.67 106.39 494.57 104.59 496.47 102.79 497.87 100.49 498.67 97.7902 499.47 95.0902 499.87 92.0902 499.87 88.5902 499.87 85.2902 499.87 81.5902 499.77 77.6902ZM492.87 46.7902C492.87 48.5902 492.97 50.5902 492.97 52.6902 492.97 54.7902 492.97 56.8902 492.87 58.9902 492.77 61.0902 492.67 63.2902 492.47 65.3902 492.27 67.5902 491.67 69.7902 490.87 71.7902 490.07 73.7902 488.87 75.5902 487.47 77.0902 486.07 78.5902 484.37 79.7902 482.37 80.6902 480.37 81.5902 478.17 82.0902 475.67 82.0902 470.27 82.0902 466.17 80.5902 463.37 77.4902 460.57 74.3902 459.07 70.1902 458.87 64.7902 458.77 61.8902 459.07 58.9902 459.77 56.1902 460.47 53.3902 461.77 50.8902 463.57 48.6902 465.37 46.4902 467.77 44.6902 470.87 43.2902 473.87 41.8902 477.77 41.1902 482.27 41.1902 484.27 41.1902 486.17 41.2902 487.97 41.4902 489.57 41.6902 491.27 41.9902 492.87 42.2902 492.77 43.6902 492.77 45.1902 492.87 46.7902Z" fill="#1CB06A"/><path d="M85.1699 21.8901 85.1699 35.7901 64.9699 35.7901 64.9699 86.7901 45.4699 86.7901 45.4699 35.7901 24.5699 35.7901 24.5699 21.8901 85.1699 21.8901Z" fill="#394347"/><path d="M123.37 58.0901C123.57 60.6901 123.47 63.0901 123.17 65.3901L89.57 65.3901C89.67 67.1901 90.07 68.7901 90.87 70.0901 91.67 71.3901 92.67 72.4901 93.87 73.2901 95.07 74.0901 96.47 74.7901 98.07 75.0901 99.67 75.4901 101.27 75.6901 102.97 75.6901 105.87 75.6901 108.77 75.2901 111.67 74.5901 114.57 73.8901 117.27 73.1901 119.77 72.4901L118.27 86.0901C115.47 86.6901 112.77 87.0901 109.97 87.4901 107.17 87.8901 104.27 87.9901 101.37 87.9901 95.97 87.9901 91.37 87.3901 87.67 86.2901 83.87 85.1901 80.77 83.4901 78.37 81.3901 75.97 79.2901 74.17 76.7901 73.07 73.8901 71.87 70.9901 71.27 67.7901 70.97 64.2901 70.87 62.1901 70.97 59.4901 71.47 56.4901 71.97 53.3901 73.07 50.4901 74.87 47.5901 76.67 44.6901 79.37 42.2901 82.87 40.2901 86.37 38.2901 91.17 37.1901 97.17 37.1901 105.27 37.1901 111.57 38.9901 115.97 42.5901 120.47 46.0901 122.87 51.2901 123.37 58.0901ZM105.27 56.5901C104.87 50.8901 102.37 47.9901 97.67 47.9901 95.57 47.9901 93.67 48.7901 92.17 50.2901 90.67 51.7901 89.77 53.8901 89.67 56.5901L105.27 56.5901ZM128.07 21.8901 146.47 21.8901 146.47 86.7901 128.07 86.7901 128.07 21.8901ZM203.87 58.0901C204.07 60.6901 203.97 63.0901 203.67 65.3901L170.17 65.3901C170.27 67.1901 170.67 68.7901 171.47 70.0901 172.27 71.3901 173.27 72.4901 174.47 73.2901 175.67 74.0901 177.07 74.7901 178.67 75.0901 180.27 75.4901 181.87 75.6901 183.57 75.6901 186.47 75.6901 189.37 75.2901 192.27 74.5901 195.17 73.8901 197.87 73.1901 200.37 72.4901L198.87 86.0901C196.07 86.6901 193.37 87.0901 190.57 87.4901 187.77 87.8901 184.87 87.9901 181.97 87.9901 176.57 87.9901 171.97 87.3901 168.27 86.2901 164.47 85.1901 161.37 83.4901 158.97 81.3901 156.57 79.2901 154.77 76.7901 153.67 73.8901 152.47 70.9901 151.87 67.7901 151.57 64.2901 151.47 62.1901 151.57 59.4901 152.07 56.4901 152.57 53.3901 153.67 50.4901 155.47 47.5901 157.27 44.6901 159.97 42.2901 163.47 40.2901 166.97 38.2901 171.77 37.1901 177.77 37.1901 185.87 37.1901 192.17 38.9901 196.57 42.5901 200.97 46.0901 203.47 51.2901 203.87 58.0901ZM185.87 56.5901C185.47 50.8901 182.97 47.9901 178.27 47.9901 176.17 47.9901 174.27 48.7901 172.77 50.2901 171.27 51.7901 170.37 53.8901 170.27 56.5901L185.87 56.5901Z" fill="#394347"/><path d="M38.47 6.8899C52.07 1.9899 65.97 0.289901 77.27 1.4899 68.37-0.310099 58.17-0.610099 47.37 1.2899 18.47 6.0899-2.62996 23.7899 0.270039 40.5899 0.470039 41.5899 0.670039 42.5899 0.970039 43.4899-0.729961 30.8899 14.57 15.3899 38.47 6.8899ZM104.97 22.9899C104.57 20.5899 103.67 18.3899 102.47 16.2899 106.27 29.2899 90.67 46.0899 65.47 55.0899 47.27 61.5899 28.67 62.4899 16.07 58.2899 26.77 63.2899 41.77 65.0899 57.77 62.3899 86.67 57.5899 107.77 39.8899 104.97 22.9899Z" fill="#1CB06A"/><path d="M505.03 29.75C504.44 29.75 503.9 29.65 503.41 29.46 502.92 29.27 502.49 28.99 502.13 28.65 501.76 28.3 501.48 27.88 501.28 27.39 501.08 26.9 500.98 26.36 500.98 25.75 500.98 25.14 501.08 24.6 501.28 24.11 501.48 23.62 501.76 23.2 502.13 22.85 502.5 22.5 502.92 22.23 503.41 22.04 503.9 21.85 504.44 21.75 505.03 21.75 505.62 21.75 506.14 21.85 506.64 22.04 507.14 22.23 507.56 22.51 507.92 22.85 508.28 23.2 508.56 23.62 508.76 24.11 508.96 24.6 509.06 25.14 509.06 25.75 509.06 26.36 508.96 26.9 508.76 27.39 508.56 27.88 508.28 28.3 507.92 28.65 507.56 29 507.13 29.27 506.64 29.46 506.14 29.65 505.61 29.75 505.03 29.75ZM505.03 28.9C505.49 28.9 505.91 28.82 506.29 28.67 506.67 28.52 506.99 28.3 507.26 28.03 507.53 27.76 507.74 27.43 507.9 27.04 508.06 26.65 508.13 26.22 508.13 25.75 508.13 25.28 508.05 24.85 507.9 24.46 507.75 24.07 507.53 23.74 507.26 23.47 506.99 23.2 506.66 22.99 506.29 22.83 505.91 22.68 505.49 22.6 505.03 22.6 504.57 22.6 504.15 22.68 503.77 22.83 503.39 22.98 503.06 23.2 502.79 23.47 502.52 23.74 502.31 24.07 502.15 24.46 502 24.85 501.92 25.28 501.92 25.75 501.92 26.22 502 26.65 502.15 27.04 502.3 27.43 502.52 27.76 502.79 28.03 503.06 28.3 503.39 28.51 503.77 28.67 504.15 28.82 504.57 28.9 505.03 28.9ZM503.63 23.66 505.24 23.66C505.63 23.66 505.94 23.77 506.19 23.99 506.43 24.21 506.55 24.51 506.55 24.88 506.55 25.17 506.48 25.42 506.35 25.61 506.21 25.8 506.04 25.94 505.83 26.03L506.8 27.53 505.85 27.53 505 26.11 504.43 26.11 504.43 27.53 503.63 27.53 503.63 23.66ZM504.97 25.52C505.19 25.52 505.38 25.48 505.52 25.39 505.66 25.3 505.73 25.14 505.73 24.9 505.73 24.7 505.67 24.55 505.54 24.46 505.41 24.37 505.27 24.32 505.12 24.32L504.43 24.32 504.43 25.52 504.98 25.52 504.97 25.52Z" fill="#1CB06A"/></g></svg>